<?xml version="1.0" encoding="UTF-8"?>
<svg id="Ebene_2" data-name="Ebene 2" xmlns="http://www.w3.org/2000/svg" viewBox="0 0 344.24 76.27">
  <defs>
    <style>
      .cls-1 {
        fill: #fff;
        stroke: #fff;
        stroke-miterlimit: 10;
        stroke-width: 2px;
      }
    </style>
  </defs>
  <g id="Ebene_1-2" data-name="Ebene 1">
    <g>
      <path class="cls-1" d="M1.49,31.99c1.31-1.53.95-1.12,3.1-3.36,4.64-4.89,2.5-2.55,6.67-7.24,2.02-2.14,1.55-1.83,2.86-3.06l4.64,4.89c1.91,2.14,2.74,3.97,2.98,6.42,0,.51,0,1.02.12,1.84l.36-.41c7.98-7.75,6.91-6.63,12.5-12.74,9.05,6.83,7.38,5.71,17.86,12.13-5,2.85-5.95,4.08-5.95,8.15v19.88c0,3.77.36,4.69,2.62,6.52l4.17-3.47,1.55,1.33c-2.14,1.63-3.45,2.75-6.79,5.81-3.69,3.36-4.29,3.98-6.19,5.81l-3.93-3.97c-3.22-3.26-3.22-3.57-3.22-6.32v-31.5l-6.91-4.28-6.07,5.71v22.22c0,3.36.83,4.69,5.6,7.75-4.64,2.34-7.03,4.48-11.31,10.4-2.98-4.69-6.07-7.64-11.19-10.4,4.64-2.85,5-3.26,5-7.75v-21.4c0-2.75-.48-3.67-3.33-5.4l-3.45,3.57-1.67-1.12Z"/>
      <path class="cls-1" d="M72.1,45.95c.12,1.02.12,1.73.24,2.24.48,7.03,1.19,9.38,4.05,12.54,1.91,1.94,3.45,2.96,6.55,4.08l7.62-5.71,1.55,1.32c-2.5,2.04-4.29,3.47-8.57,6.63-4.52,3.47-6.31,4.89-9.53,7.54-1.91-1.94-2.98-3.06-5.24-5.1-4.88-4.28-6.31-6.42-7.26-9.78-.36-1.94-.71-3.98-.83-6.32-.12-1.32-.24-2.65-.24-4.28v-2.24c0-4.08,0-7.75-.12-6.73.12-8.56,1.55-10.7,9.88-15.9,4.53-2.85,6.43-4.18,9.41-6.83l1.31,1.94,1.43,2.04,1.43,2.24,1.31,2.24c.48.51,2.26,2.96,4.88,6.32l.36.71.6.61.36.61-19.17,11.82ZM80.68,38.31c-1.19-1.94-.6-.92-2.26-3.26-1.43-2.14-2.26-3.47-2.26-3.47-4.05-5.91-2.98-4.08-4.05-5.71-.24,3.06-.36,4.38-.36,8.36,0,3.06.12,5.61.36,9.28l8.57-5.2Z"/>
      <path class="cls-1" d="M109.49,45.95c.12,1.02.12,1.73.24,2.24.48,7.03,1.19,9.38,4.05,12.54,1.91,1.94,3.45,2.96,6.55,4.08l7.62-5.71,1.55,1.32c-2.5,2.04-4.29,3.47-8.57,6.63-4.52,3.47-6.31,4.89-9.53,7.54-1.91-1.94-2.98-3.06-5.24-5.1-4.88-4.28-6.31-6.42-7.26-9.78-.36-1.94-.71-3.98-.83-6.32-.12-1.32-.24-2.65-.24-4.28v-2.24c0-4.08,0-7.75-.12-6.73.12-8.56,1.55-10.7,9.88-15.9,4.53-2.85,6.43-4.18,9.41-6.83l1.31,1.94,1.43,2.04,1.43,2.24,1.31,2.24c.48.51,2.26,2.96,4.88,6.32l.36.71.6.61.36.61-19.17,11.82ZM118.07,38.31c-1.19-1.94-.6-.92-2.26-3.26-1.43-2.14-2.26-3.47-2.26-3.47-4.05-5.91-2.98-4.08-4.05-5.71-.24,3.06-.36,4.38-.36,8.36,0,3.06.12,5.61.36,9.28l8.57-5.2Z"/>
      <path class="cls-1" d="M157.48,19.14l-5.47-2.55c-4.88-2.24-3.34-1.52-4.41-2.24-2.74-1.63-3.93-3.26-3.93-5.5,0-2.65,3.09-4.69,7.74-5.5l-.35-1.94c-9.53.61-16.32,5.81-16.32,12.73,0,5.4,3.93,9.18,13.58,12.95l-10.95,3.98v30.88l-4.29,2.86c8.22,2.45,12.86,4.89,19.06,9.88,4.88-3.46,9.17-6.93,13.1-10.7,8.46-8.06,11.44-13.46,11.44-20.8,0-10.3-6.07-18.04-19.18-24.05ZM159.5,66.34l-10.35-6.02V27.4c6.07,2.14,9.17,3.77,12.02,6.12,5,4.18,7.62,9.07,7.62,14.88,0,6.83-3.09,12.84-9.29,17.94Z"/>
      <path class="cls-1" d="M211.78,59l1.66,1.32c-10.47,9.69-12.02,11.01-14.65,14.37-4.88-4.89-9.17-7.84-15.6-10.6,4.88-2.85,5.36-3.66,5.36-9.37v-30.68c0-11.42-1.19-14.88-6.67-19.98l1.91-1.42c4.41,3.77,4.76,4.18,7.74,8.76,5.24-6.93,11.67-10.39,19.17-10.39h2.62l.36,1.84c-9.18.82-13.34,6.11-13.34,16.92v40.46l5.95,3.87,5.48-5.09Z"/>
      <path class="cls-1" d="M228.21,45.95c.12,1.02.12,1.73.24,2.24.48,7.03,1.19,9.38,4.05,12.54,1.91,1.94,3.45,2.96,6.55,4.08l7.62-5.71,1.55,1.32c-2.5,2.04-4.29,3.47-8.57,6.63-4.52,3.47-6.31,4.89-9.53,7.54-1.91-1.94-2.98-3.06-5.24-5.1-4.88-4.28-6.31-6.42-7.26-9.78-.36-1.94-.71-3.98-.83-6.32-.12-1.32-.24-2.65-.24-4.28v-2.24c0-4.08,0-7.75-.12-6.73.12-8.56,1.55-10.7,9.88-15.9,4.53-2.85,6.43-4.18,9.41-6.83l1.31,1.94,1.43,2.04,1.43,2.24,1.31,2.24c.48.51,2.26,2.96,4.88,6.32l.36.71.6.61.36.61-19.17,11.82ZM236.79,38.31c-1.19-1.94-.6-.92-2.26-3.26-1.43-2.14-2.26-3.47-2.26-3.47-4.05-5.91-2.98-4.08-4.05-5.71-.24,3.06-.36,4.38-.36,8.36,0,3.06.12,5.61.36,9.28l8.57-5.2Z"/>
      <path class="cls-1" d="M262.86,16.59c1.67-3.36,2.74-4.89,4.76-6.52,2.74-2.45,7.14-4.08,11.19-4.08,9.17,0,15.84,5.2,15.84,12.33,0,6.42-6.31,11.42-14.29,11.42-3.1,0-6.67-1.12-9.41-2.96-.83-.61-1.19-.92-3.21-2.75,0,0-.24-.2-.48-.51-2.14,1.33-2.86,2.55-2.74,5.1.12.92.36,1.83.71,2.65l2.98,8.56,18.58-8.56c.6,1.63.95,2.34,1.67,3.57l.6,1.02.83,1.33.83,1.32.83,1.22c2.26,3.57,3.1,6.93,2.86,10.7-.24,5.91-3.1,10.8-8.69,15.49-2.5,2.24-5.12,3.98-7.5,5.2l-2.02,1.02-2.02.81-1.91,1.02c-.36.2-.83.51-1.67.82q-1.91-3.47-8.22-7.24c-7.62-4.38-10.6-8.15-10.24-13.05.24-3.16,1.43-5.1,5.48-8.97l-4.88-14.27,1.31-1.02,2.26-1.63,2.14-1.73,2.14-1.63c2.86-2.14,5-3.57,11.31-7.24,1.43-.92,0-.1,4.53-2.65,1.07,4.38,4.41,7.34,8.34,7.64,4.05.2,7.5-2.96,7.26-6.52-.48-4.99-6.31-8.77-13.1-8.77-3.69,0-7.86,1.63-10.12,3.87-1.43,1.43-2.26,2.55-4.05,5.61l-1.91-.61ZM266.32,56.96c4.41,2.45,6.91,4.28,8.34,6.22,1.43,1.73,1.55,2.24,1.79,6.42,2.98-1.63,3.93-2.55,5.24-4.48,1.55-2.24,2.5-5.71,2.5-8.46,0-4.79-1.43-8.46-4.29-11.31-2.62-2.65-5.83-4.08-9.29-4.08-2.02,0-5.83,1.32-8.1,2.75-2.26,1.53-3.22,3.16-3.22,5.2,0,2.24,1.55,4.38,4.29,6.22l.95.51.6.41.48.31.71.31Z"/>
      <path class="cls-1" d="M311.45,16.59c1.67-3.36,2.74-4.89,4.76-6.52,2.74-2.45,7.14-4.08,11.19-4.08,9.17,0,15.84,5.2,15.84,12.33,0,6.42-6.31,11.42-14.29,11.42-3.1,0-6.67-1.12-9.41-2.96-.83-.61-1.19-.92-3.21-2.75,0,0-.24-.2-.48-.51-2.14,1.33-2.86,2.55-2.74,5.1.12.92.36,1.83.71,2.65l2.98,8.56,18.58-8.56c.6,1.63.95,2.34,1.67,3.57l.6,1.02.83,1.33.83,1.32.83,1.22c2.26,3.57,3.1,6.93,2.86,10.7-.24,5.91-3.1,10.8-8.69,15.49-2.5,2.24-5.12,3.98-7.5,5.2l-2.02,1.02-2.02.81-1.91,1.02c-.36.2-.83.51-1.67.82q-1.91-3.47-8.22-7.24c-7.62-4.38-10.6-8.15-10.24-13.05.24-3.16,1.43-5.1,5.48-8.97l-4.88-14.27,1.31-1.02,2.26-1.63,2.14-1.73,2.14-1.63c2.86-2.14,5-3.57,11.31-7.24,1.43-.92,0-.1,4.53-2.65,1.07,4.38,4.41,7.34,8.34,7.64,4.05.2,7.5-2.96,7.26-6.52-.48-4.99-6.31-8.77-13.1-8.77-3.69,0-7.86,1.63-10.12,3.87-1.43,1.43-2.26,2.55-4.05,5.61l-1.91-.61ZM314.9,56.96c4.41,2.45,6.91,4.28,8.34,6.22,1.43,1.73,1.55,2.24,1.79,6.42,2.98-1.63,3.93-2.55,5.24-4.48,1.55-2.24,2.5-5.71,2.5-8.46,0-4.79-1.43-8.46-4.29-11.31-2.62-2.65-5.83-4.08-9.29-4.08-2.02,0-5.83,1.32-8.1,2.75-2.26,1.53-3.22,3.16-3.22,5.2,0,2.24,1.55,4.38,4.29,6.22l.95.51.6.41.48.31.71.31Z"/>
    </g>
  </g>
</svg>