<?xml version="1.0" encoding="UTF-8"?>
<svg id="Ebene_2" data-name="Ebene 2" xmlns="http://www.w3.org/2000/svg" viewBox="0 0 56.55 59.35">
  <defs>
    <style>
      .cls-1 {
        fill: #fff;
        stroke: #fff;
        stroke-miterlimit: 10;
        stroke-width: 2px;
      }
    </style>
  </defs>
  <g id="Ebene_1-2" data-name="Ebene 1">
    <path class="cls-1" d="M1.49,15.07c1.31-1.53.95-1.12,3.1-3.36,4.64-4.89,2.5-2.55,6.67-7.24,2.02-2.14,1.55-1.83,2.86-3.06l4.64,4.89c1.91,2.14,2.74,3.97,2.98,6.42,0,.51,0,1.02.12,1.84l.36-.41c7.98-7.75,6.91-6.63,12.5-12.74,9.05,6.83,7.38,5.71,17.86,12.13-5,2.85-5.95,4.08-5.95,8.15v19.88c0,3.77.36,4.69,2.62,6.52l4.17-3.47,1.55,1.33c-2.14,1.63-3.45,2.75-6.79,5.81-3.69,3.36-4.29,3.98-6.19,5.81l-3.93-3.97c-3.22-3.26-3.22-3.57-3.22-6.32V15.78l-6.91-4.28-6.07,5.71v22.22c0,3.36.83,4.69,5.6,7.75-4.64,2.34-7.03,4.48-11.31,10.4-2.98-4.69-6.07-7.64-11.19-10.4,4.64-2.85,5-3.26,5-7.75v-21.4c0-2.75-.48-3.67-3.33-5.4l-3.45,3.57-1.67-1.12Z"/>
  </g>
</svg>